<?xml version="1.0" encoding="utf-8"?>
<!-- Generator: Adobe Illustrator 21.1.0, SVG Export Plug-In . SVG Version: 6.00 Build 0)  -->
<svg version="1.1" id="레이어_1" xmlns="http://www.w3.org/2000/svg" xmlns:xlink="http://www.w3.org/1999/xlink" x="0px"
	 y="0px" viewBox="-1 -1 47.5 58" xml:space="preserve">
<style type="text/css">
	.st0{fill-rule:evenodd;clip-rule:evenodd;}
</style>
<path class="st0" d="M22.7,56C22.7,56,0,36.2,0,23.3C0,10.4,10.2,0,22.7,0c12.6,0,22.8,10.4,22.8,23.3C45.5,36.2,22.7,56,22.7,56z
	 M22.7,3.2C12,3.2,3.4,12.1,3.4,23.1c0,11,19.4,27.3,19.4,27.3s19.4-16.3,19.4-27.3C42.1,12.1,33.4,3.2,22.7,3.2z M22.7,34
	c-5.8,0-10.6-4.9-10.6-10.9s4.7-10.9,10.6-10.9s10.6,4.9,10.6,10.9S28.6,34,22.7,34z M22.7,16.1c-3.8,0-6.9,3.2-6.9,7.1
	c0,3.9,3.1,7.1,6.9,7.1s6.9-3.2,6.9-7.1C29.7,19.2,26.6,16.1,22.7,16.1z"/>
</svg>
