<?xml version="1.0" encoding="utf-8"?>
<!-- Generator: Adobe Illustrator 21.1.0, SVG Export Plug-In . SVG Version: 6.00 Build 0)  -->
<svg version="1.1" id="레이어_1" xmlns="http://www.w3.org/2000/svg" xmlns:xlink="http://www.w3.org/1999/xlink" x="0px"
	 y="0px" viewBox="0 0 122 122" style="enable-background:new 0 0 122 122;" xml:space="preserve">
<style type="text/css">
	.st0{fill-rule:evenodd;clip-rule:evenodd;fill:#FFFFFF;}
</style>
<g>
	<g>
		<path class="st0" d="M60,0C26.9,0,0,26.9,0,60c0,33.1,26.9,60,60,60c33.1,0,60-26.9,60-60C120,26.9,93.1,0,60,0z M60,118
			C28,118,2,92,2,60C2,28,28,2,60,2c32,0,58,26,58,58C118,92,92,118,60,118z M60,47c-5.5,0-10,4.5-10,10c0,5.5,4.5,10,10,10
			c5.5,0,10-4.5,10-10C70,51.4,65.5,47,60,47z M60,65c-4.4,0-8-3.6-8-8c0-4.4,3.6-8,8-8c4.4,0,8,3.6,8,8C68,61.4,64.4,65,60,65z
			 M60,36c-11.6,0-21,9.2-21,20.6C39,69.5,60,84,60,84s21-14.5,21-27.4C81,45.2,71.6,36,60,36z M60,82c0,0-19-13.3-19-25.2
			C41,46.4,49.5,38,60,38c10.5,0,19,8.5,19,18.9C79,68.8,60,82,60,82z"/>
	</g>
</g>
</svg>
