<?xml version="1.0" encoding="utf-8"?>
<!-- Generator: Adobe Illustrator 16.0.0, SVG Export Plug-In . SVG Version: 6.00 Build 0)  -->
<!DOCTYPE svg PUBLIC "-//W3C//DTD SVG 1.1//EN" "http://www.w3.org/Graphics/SVG/1.1/DTD/svg11.dtd">
<svg version="1.1" id="레이어_1" xmlns="http://www.w3.org/2000/svg" xmlns:xlink="http://www.w3.org/1999/xlink" x="0px"
	 y="0px" width="16px" height="16px" viewBox="0 0 16 16" enable-background="new 0 0 16 16" xml:space="preserve">
<path fill="#363636" d="M16,15c0,0.553-0.447,1-1,1H1c-0.552,0-1-0.447-1-1l0,0c0-0.553,0.448-1,1-1h14C15.553,14,16,14.447,16,15
	L16,15z"/>
<path fill="#363636" d="M7.955,0C5.495,0,3.5,2.062,3.5,4.606c0,0.663,0.139,1.293,0.383,1.863L7.955,14l4.116-7.531
	c0.245-0.57,0.429-1.2,0.429-1.863C12.5,2.062,10.451,0,7.955,0z M7.955,7.54c-1.476,0-2.673-1.238-2.673-2.764
	c0-1.526,1.197-2.763,2.673-2.763c1.782,0,2.674,1.236,2.674,2.763C10.629,6.301,9.737,7.54,7.955,7.54z"/>
</svg>
