<?xml version="1.0" encoding="utf-8"?>
<!-- Generator: Adobe Illustrator 21.1.0, SVG Export Plug-In . SVG Version: 6.00 Build 0)  -->
<svg version="1.1" id="레이어_1" xmlns="http://www.w3.org/2000/svg" xmlns:xlink="http://www.w3.org/1999/xlink" x="0px"
	 y="0px" viewBox="0 0 122 122" style="enable-background:new 0 0 122 122;" xml:space="preserve">
<style type="text/css">
	.st0{fill-rule:evenodd;clip-rule:evenodd;fill:#FFFFFF;}
</style>
<g>
	<g>
		<path class="st0" d="M51,66h18v-2H51V66z M51,74h18v-2H51V74z M51,58h18v-2H51V58z M69,36H43c-0.3,0-0.5,0.1-0.8,0.2
			c-0.2,0.1-0.5,0.2-0.6,0.4c-0.1,0.1-0.2,0.2-0.2,0.3C41.1,37.2,41,37.6,41,38v44c0,1.1,0.9,2,2,2h34c1.1,0,2-0.9,2-2V46l0-1l-9-9
			L69,36z M77,81c0,0.6-0.4,1-1,1H44c-0.6,0-1-0.4-1-1V39c0-0.6,0.4-1,1-1h23l0,10l10,0V81z M77.2,46l-8.1,0l0-8.2l2.5,2.5L77.2,46z
			 M60,0C26.9,0,0,26.9,0,60c0,33.1,26.9,60,60,60c33.1,0,60-26.9,60-60C120,26.9,93.1,0,60,0z M60,118C28,118,2,92,2,60
			C2,28,28,2,60,2c32,0,58,26,58,58C118,92,92,118,60,118z"/>
	</g>
</g>
</svg>
