<?xml version="1.0" encoding="utf-8"?>
<!-- Generator: Adobe Illustrator 21.1.0, SVG Export Plug-In . SVG Version: 6.00 Build 0)  -->
<svg version="1.1" id="레이어_1" xmlns="http://www.w3.org/2000/svg" xmlns:xlink="http://www.w3.org/1999/xlink" x="0px"
	 y="0px" viewBox="-1 -1 34 34" xml:space="preserve">
<style type="text/css">
	.st0{fill-rule:evenodd;clip-rule:evenodd;}
</style>
<g>
	<g>
		<path class="st0" d="M28,0H4C1.8,0,0,1.8,0,4v16c0,2.2,1.8,4,4,4h10v6H6v2h20v-2h-8v-6h10c2.2,0,4-1.8,4-4V4C32,1.8,30.2,0,28,0z
			 M30,20c0,1.1-0.9,2-2,2H4c-1.1,0-2-0.9-2-2V4c0-1.1,0.9-2,2-2h24c1.1,0,2,0.9,2,2V20z"/>
	</g>
</g>
<g>
	<path d="M21.7,15.4h1.5c-0.5,1-1.2,1.8-2.2,2.3c-1.1,0.6-2.5,1-4.2,1c-1.6,0-3-0.3-4.1-0.8c-1.2-0.5-2-1.3-2.6-2.4
		c-0.6-1.1-0.8-2.2-0.8-3.4c0-1.4,0.3-2.6,1-3.8c0.6-1.2,1.5-2.1,2.6-2.6c1.1-0.6,2.4-0.9,3.8-0.9c1.2,0,2.3,0.2,3.3,0.7
		c0.9,0.5,1.7,1.1,2.2,2c0.5,0.9,0.8,1.8,0.8,2.9c0,1.2-0.4,2.3-1.1,3.3c-1,1.3-2.2,1.9-3.7,1.9c-0.4,0-0.7-0.1-0.9-0.2
		c-0.2-0.1-0.3-0.3-0.4-0.6c-0.6,0.6-1.2,0.8-2,0.8c-0.8,0-1.5-0.3-2-0.8c-0.5-0.6-0.8-1.3-0.8-2.2c0-1.1,0.3-2.2,1-3.1
		c0.8-1.1,1.8-1.7,3-1.7c0.9,0,1.5,0.3,1.9,1L18,7.9h1.9l-1.1,5.2c-0.1,0.3-0.1,0.5-0.1,0.6c0,0.1,0,0.2,0.1,0.3
		c0.1,0.1,0.1,0.1,0.2,0.1c0.2,0,0.5-0.1,0.9-0.4c0.5-0.4,0.9-0.9,1.2-1.5c0.3-0.6,0.5-1.3,0.5-1.9c0-1.2-0.4-2.2-1.3-3
		c-0.9-0.8-2.1-1.2-3.6-1.2c-1.3,0-2.4,0.3-3.3,0.8c-0.9,0.5-1.6,1.3-2.1,2.3c-0.5,1-0.7,2-0.7,3c0,1,0.3,2,0.8,2.8
		c0.5,0.8,1.2,1.4,2.2,1.8c0.9,0.4,2,0.6,3.2,0.6c1.2,0,2.2-0.2,3-0.5C20.5,16.6,21.1,16.1,21.7,15.4z M13.8,12.5
		c0,0.6,0.1,1.1,0.4,1.4c0.2,0.3,0.6,0.4,0.9,0.4c0.3,0,0.5-0.1,0.8-0.2c0.2-0.1,0.4-0.2,0.5-0.5c0.3-0.3,0.5-0.7,0.7-1.3
		c0.2-0.6,0.3-1.1,0.3-1.6c0-0.5-0.1-1-0.4-1.3C16.7,9.2,16.4,9,16,9c-0.4,0-0.8,0.2-1.2,0.5c-0.4,0.3-0.6,0.8-0.8,1.4
		C13.9,11.5,13.8,12,13.8,12.5z"/>
</g>
</svg>
